<?xml version="1.0" encoding="utf-8"?>
<svg xmlns="http://www.w3.org/2000/svg" xmlns:svg="http://www.w3.org/2000/svg" version="1.1" viewBox="0 0 1400 340">
	<title>The titlepage for the Standard Ebooks edition of Poetry, by T. S. Eliot</title>
	<g>
		<path d="m 502.14181,52.807016 28.16374,0 q 11.78948,0 19.08772,6.081872 7.29825,6.081871 7.29825,17.68421 0,11.60234 -7.39181,18.245615 -7.39182,6.549707 -18.99416,6.549707 l -10.5731,0 0,28.63158 -17.59064,0 0,-77.192984 z m 17.59064,34.526317 4.95907,0 q 5.89473,0 9.63742,-2.339182 3.83626,-2.432748 3.83626,-7.859649 0,-5.520468 -3.83626,-7.859649 -3.74269,-2.432749 -9.63742,-2.432749 l -4.95907,0 0,20.491229 z"/>
		<path d="m 565.99707,91.356724 q 0,-16.748538 11.41521,-28.350877 11.4152,-11.60234 27.50877,-11.60234 16.18714,0 27.50877,11.60234 11.32164,11.508772 11.32164,28.350877 0,16.935676 -11.1345,28.538016 -11.1345,11.50877 -27.69591,11.50877 -16.93567,0 -27.97661,-11.41521 -10.94737,-11.50877 -10.94737,-28.631576 z m 18.99416,0 q 0,6.081872 1.87134,11.134506 1.87135,4.95906 6.54971,8.42105 4.67836,3.46199 11.50877,3.46199 9.82456,0 14.78363,-6.73684 5.05263,-6.73685 5.05263,-16.280706 0,-9.450292 -5.1462,-16.187134 -5.05263,-6.83041 -14.69006,-6.83041 -9.54386,0 -14.78362,6.83041 -5.1462,6.736842 -5.1462,16.187134 z"/>
		<path d="m 700.67689,52.807016 0,15.438597 -26.5731,0 0,15.345029 25.45029,0 0,15.438597 -25.45029,0 0,15.532161 26.5731,0 0,15.4386 -44.16374,0 0,-77.192984 44.16374,0 z"/>
		<path d="m 710.92397,68.245613 0,-15.438597 54.26901,0 0,15.438597 -18.33918,0 0,61.754387 -17.59065,0 0,-61.754387 -18.33918,0 z"/>
		<path d="m 776.52777,52.807016 27.60234,0 q 11.1345,0 18.15204,5.988304 7.01755,5.894737 7.01755,16.935673 0,8.51462 -4.3041,14.31579 -4.21052,5.707602 -11.50877,8.046784 L 840.05993,130 l -22.36257,0 -23.57895,-30.502925 0,30.502925 -17.59064,0 0,-77.192984 z m 17.59064,34.245615 2.05848,0 q 2.43275,0 4.11696,-0.09357 1.68421,-0.09357 3.83626,-0.654971 2.15204,-0.561404 3.46198,-1.590644 1.30994,-1.029239 2.24562,-2.994152 0.93567,-1.964912 0.93567,-4.77193 0,-2.807017 -0.93567,-4.771929 -0.93568,-1.964913 -2.24562,-2.994153 -1.30994,-1.029239 -3.46198,-1.590643 -2.15205,-0.561403 -3.83626,-0.654971 -1.68421,-0.09357 -4.11696,-0.09357 l -2.05848,0 0,20.210527 z"/>
		<path d="m 831.76901,52.807016 21.14619,0 16.09357,24.701755 16.09357,-24.701755 21.1462,0 -28.44445,42.5731 0,34.619884 -17.59064,0 0,-34.619884 -28.44444,-42.5731 z"/>
	</g>
	<g>
		<path d="m 488.74671,243.68421 0,-11.57895 40.70176,0 0,11.57895 -13.75439,0 0,46.31579 -13.19298,0 0,-46.31579 -13.75439,0 z"/>
		<path d="m 542.67654,274.98246 q 3.36842,0 5.68421,2.38596 2.38596,2.31579 2.38596,5.68421 0,3.29825 -2.38596,5.68421 -2.31579,2.31579 -5.68421,2.31579 -3.29825,0 -5.68421,-2.31579 -2.31579,-2.38596 -2.31579,-5.68421 0,-3.36842 2.31579,-5.68421 2.38596,-2.38596 5.68421,-2.38596 z"/>
		<path d="m 608.36184,231.05263 q 4.70176,0 9.19299,1.40351 4.49122,1.33333 6.66666,2.66667 l 2.10527,1.40351 -5.33334,10.52631 q -0.63158,-0.42105 -1.75438,-1.05263 -1.12281,-0.70175 -4.21053,-1.82456 -3.08772,-1.12281 -5.75439,-1.12281 -3.29824,0 -5.1228,1.40351 -1.75439,1.40351 -1.75439,3.78947 0,1.19299 0.84211,2.24562 0.8421,0.98245 2.87719,2.17544 2.03509,1.1228 3.57895,1.82456 1.54386,0.70175 4.77193,2.10526 5.61403,2.38597 9.54386,6.52632 4,4.07017 4,9.26316 0,4.98245 -1.82457,8.70175 -1.75438,3.7193 -4.91228,5.82456 -3.08772,2.10526 -6.87719,3.08772 -3.78947,1.05263 -8.21053,1.05263 -3.78947,0 -7.43859,-0.77193 -3.64912,-0.77193 -6.10526,-1.89474 -2.45615,-1.19298 -4.42106,-2.31578 -1.96491,-1.12281 -2.87719,-1.89474 l -0.91228,-0.77193 6.59649,-11.08772 q 0.84211,0.70175 2.31579,1.82456 1.47368,1.05263 5.19298,2.87719 3.78948,1.82457 6.66667,1.82457 8.35088,0 8.35088,-5.68422 0,-1.19298 -0.63158,-2.17543 -0.56141,-1.05264 -2.10527,-2.03509 -1.47368,-1.05263 -2.66666,-1.61404 -1.12281,-0.63158 -3.78948,-1.82456 -2.59649,-1.26316 -3.85965,-1.89473 -5.26315,-2.5965 -8.14035,-6.45614 -2.87719,-3.92983 -2.87719,-8.42106 0,-7.78947 5.75439,-12.70175 5.75438,-4.98246 13.1228,-4.98246 z"/>
		<path d="m 647.17763,274.98246 q 3.36843,0 5.68421,2.38596 2.38597,2.31579 2.38597,5.68421 0,3.29825 -2.38597,5.68421 -2.31578,2.31579 -5.68421,2.31579 -3.29824,0 -5.68421,-2.31579 -2.31579,-2.38596 -2.31579,-5.68421 0,-3.36842 2.31579,-5.68421 2.38597,-2.38596 5.68421,-2.38596 z"/>
		<path d="m 726.02302,232.10526 0,11.57895 -19.92982,0 0,11.50877 19.08772,0 0,11.57895 -19.08772,0 0,11.64912 19.92982,0 0,11.57895 -33.12281,0 0,-57.89474 33.12281,0 z"/>
		<path d="m 751.80044,232.10526 0,46.31579 19.92983,0 0,11.57895 -33.12281,0 0,-57.89474 13.19298,0 z"/>
		<path d="m 796.41117,232.10526 0,57.89474 -13.19298,0 0,-57.89474 13.19298,0 z"/>
		<path d="m 807.2774,261.01754 q 0,-12.5614 8.56141,-21.26315 8.5614,-8.70176 20.63157,-8.70176 12.14035,0 20.63158,8.70176 8.49123,8.63158 8.49123,21.26315 0,12.70176 -8.35088,21.40351 -8.35087,8.63158 -20.77193,8.63158 -12.70175,0 -20.98245,-8.5614 -8.21053,-8.63158 -8.21053,-21.47369 z m 14.24562,0 q 0,4.56141 1.4035,8.35088 1.40351,3.7193 4.91229,6.31579 3.50877,2.59649 8.63157,2.59649 7.36842,0 11.08772,-5.05263 3.78948,-5.05263 3.78948,-12.21053 0,-7.08772 -3.85965,-12.14035 -3.78948,-5.1228 -11.01755,-5.1228 -7.15789,0 -11.08772,5.1228 -3.85964,5.05263 -3.85964,12.14035 z"/>
		<path d="m 870.57237,243.68421 0,-11.57895 40.70175,0 0,11.57895 -13.75439,0 0,46.31579 -13.19298,0 0,-46.31579 -13.75438,0 z"/>
	</g>
</svg>
