<?xml version="1.0" encoding="UTF-8"?>
<svg xmlns="http://www.w3.org/2000/svg" xmlns:svg="http://www.w3.org/2000/svg" version="1.1" viewBox="0 0 1400 360">
	<title>The titlepage for the Standard Ebooks edition of Poems, by T. S. Eliot</title>
	<g style="font-size:93.56725311px;font-family:'League Spartan';letter-spacing:5px;text-anchor:middle;fill:#000000">
		<path d="m 521.54605,52.807016 0,77.192984 17.59064,0 0,-28.63158 10.5731,0 c 15.06433,0 26.38597,-8.888888 26.38597,-24.795322 0,-16 -11.32164,-23.766082 -26.38597,-23.766082 l -28.16374,0 z m 17.59064,34.526317 0,-20.491229 4.95907,0 c 6.92397,0 13.47368,2.339181 13.47368,10.292398 0,7.859649 -6.54971,10.198831 -13.47368,10.198831 l -4.95907,0 z" style="font-size:93.56725311px;font-family:'League Spartan';letter-spacing:5px;text-anchor:middle;fill:#000000"/>
		<path d="m 585.40131,91.356724 c 0,22.549706 16.09357,40.046786 38.92398,40.046786 22.17544,0 38.83041,-17.49708 38.83041,-40.046786 0,-22.549708 -17.40351,-39.953217 -38.83041,-39.953217 -21.23976,0 -38.92398,17.403509 -38.92398,39.953217 z m 18.99416,0 c 0,-11.508772 6.36257,-23.017544 19.92982,-23.017544 13.66082,0 19.83626,11.508772 19.83626,23.017544 0,11.508776 -5.80117,23.017546 -19.83626,23.017546 -14.40936,0 -19.92982,-11.50877 -19.92982,-23.017546 z" style="font-size:93.56725311px;font-family:'League Spartan';letter-spacing:5px;text-anchor:middle;fill:#000000"/>
		<path d="m 720.08113,52.807016 -44.16374,0 0,77.192984 44.16374,0 0,-15.4386 -26.5731,0 0,-15.532161 25.45029,0 0,-15.438597 -25.45029,0 0,-15.345029 26.5731,0 0,-15.438597 z" style="font-size:93.56725311px;font-family:'League Spartan';letter-spacing:5px;text-anchor:middle;fill:#000000"/>
		<path d="m 799.00658,130 17.59064,0 -6.92398,-77.192984 -18.71345,0 -17.12281,44.538013 -17.1228,-44.538013 -18.71345,0 L 731.07675,130 l 17.59064,0 3.64913,-45.754387 0.46783,0 15.81287,45.286547 10.47953,0 15.81287,-45.286547 0.46783,0 L 799.00658,130 Z" style="font-size:93.56725311px;font-family:'League Spartan';letter-spacing:5px;text-anchor:middle;fill:#000000"/>
		<path d="m 855.26097,51.403507 c -12.44444,0 -25.16959,9.169591 -25.16959,23.578948 0,8.046784 5.4269,15.251462 14.69006,19.836258 9.16959,4.584795 17.40351,7.111107 17.40351,12.725147 0,7.20468 -7.29825,7.57895 -11.1345,7.57895 -8.60819,0 -18.90059,-8.70176 -18.90059,-8.70176 l -8.79532,14.78363 c 0,0 10.94737,10.19883 29.00585,10.19883 15.06432,0 29.09941,-6.45614 29.09941,-24.88889 0,-10.105264 -9.45029,-17.40351 -18.05848,-21.052632 -8.79532,-3.742691 -16.09356,-6.83041 -16.09356,-11.134504 0,-4.210526 3.18128,-6.923976 9.16959,-6.923976 7.95321,0 15.62573,5.333333 15.62573,5.333333 l 7.11111,-14.035088 c 0,0 -9.91813,-7.298246 -23.95322,-7.298246 z" style="font-size:93.56725311px;font-family:'League Spartan';letter-spacing:5px;text-anchor:middle;fill:#000000"/>
	</g>
	<g style="font-size:70.17543793px;font-family:'League Spartan';letter-spacing:5px;text-anchor:middle;fill:#000000">
		<path d="m 488.74671,243.68421 13.75439,0 0,46.31579 13.19298,0 0,-46.31579 13.75439,0 0,-11.57895 -40.70176,0 0,11.57895 z" style="font-size:70.17543793px;font-family:'League Spartan';letter-spacing:5px;text-anchor:middle;fill:#000000"/>
		<path d="m 542.67654,274.98246 c -4.42106,0 -8,3.57894 -8,8.07017 0,4.42105 3.57894,8 8,8 4.49122,0 8.07017,-3.57895 8.07017,-8 0,-4.49123 -3.57895,-8.07017 -8.07017,-8.07017 z" style="font-size:70.17543793px;font-family:'League Spartan';letter-spacing:5px;text-anchor:middle;fill:#000000"/>
		<path d="m 608.36184,231.05263 c -9.33333,0 -18.87719,6.8772 -18.87719,17.68421 0,6.03509 4.07018,11.4386 11.01754,14.8772 6.8772,3.43859 13.05264,5.33333 13.05264,9.54385 0,5.40351 -5.47369,5.68422 -8.35088,5.68422 -6.45614,0 -14.17544,-6.52632 -14.17544,-6.52632 l -6.59649,11.08772 c 0,0 8.21053,7.64912 21.75438,7.64912 11.29825,0 21.82457,-4.8421 21.82457,-18.66666 0,-7.57895 -7.08772,-13.05264 -13.54386,-15.78948 -6.59649,-2.80702 -12.07018,-5.12281 -12.07018,-8.35088 0,-3.15789 2.38597,-5.19298 6.87719,-5.19298 5.96492,0 11.7193,4 11.7193,4 l 5.33334,-10.52631 c 0,0 -7.4386,-5.47369 -17.96492,-5.47369 z" style="font-size:70.17543793px;font-family:'League Spartan';letter-spacing:5px;text-anchor:middle;fill:#000000"/>
		<path d="m 647.17763,274.98246 c -4.42105,0 -8,3.57894 -8,8.07017 0,4.42105 3.57895,8 8,8 4.49123,0 8.07018,-3.57895 8.07018,-8 0,-4.49123 -3.57895,-8.07017 -8.07018,-8.07017 z" style="font-size:70.17543793px;font-family:'League Spartan';letter-spacing:5px;text-anchor:middle;fill:#000000"/>
		<path d="m 726.02302,232.10526 -33.12281,0 0,57.89474 33.12281,0 0,-11.57895 -19.92982,0 0,-11.64912 19.08772,0 0,-11.57895 -19.08772,0 0,-11.50877 19.92982,0 0,-11.57895 z" style="font-size:70.17543793px;font-family:'League Spartan';letter-spacing:5px;text-anchor:middle;fill:#000000"/>
		<path d="m 751.80044,232.10526 -13.19298,0 0,57.89474 33.12281,0 0,-11.57895 -19.92983,0 0,-46.31579 z" style="font-size:70.17543793px;font-family:'League Spartan';letter-spacing:5px;text-anchor:middle;fill:#000000"/>
		<path d="m 796.41117,232.10526 -13.19298,0 0,57.89474 13.19298,0 0,-57.89474 z" style="font-size:70.17543793px;font-family:'League Spartan';letter-spacing:5px;text-anchor:middle;fill:#000000"/>
		<path d="m 807.2774,261.01754 c 0,16.91228 12.07018,30.03509 29.19298,30.03509 16.63158,0 29.12281,-13.12281 29.12281,-30.03509 0,-16.91228 -13.05263,-29.96491 -29.12281,-29.96491 -15.92982,0 -29.19298,13.05263 -29.19298,29.96491 z m 14.24562,0 c 0,-8.63157 4.77193,-17.26315 14.94736,-17.26315 10.24562,0 14.8772,8.63158 14.8772,17.26315 0,8.63158 -4.35088,17.26316 -14.8772,17.26316 -10.80701,0 -14.94736,-8.63158 -14.94736,-17.26316 z" style="font-size:70.17543793px;font-family:'League Spartan';letter-spacing:5px;text-anchor:middle;fill:#000000"/>
		<path d="m 870.57237,243.68421 13.75438,0 0,46.31579 13.19298,0 0,-46.31579 13.75439,0 0,-11.57895 -40.70175,0 0,11.57895 z" style="font-size:70.17543793px;font-family:'League Spartan';letter-spacing:5px;text-anchor:middle;fill:#000000"/>
	</g>
</svg>
